<?xml version="1.0" encoding="UTF-8"?>
<svg version="1.1" xmlns="http://www.w3.org/2000/svg" width="512" height="512">
<path d="M0 0 C0.97868016 -0.00921108 1.95736033 -0.01842217 2.96569747 -0.02791238 C6.24853241 -0.05255943 9.53026159 -0.04141786 12.81315613 -0.03033447 C15.16542508 -0.04038278 17.51768587 -0.05252924 19.86993408 -0.06661987 C26.26263933 -0.09799869 32.65496864 -0.09734198 39.04773164 -0.08911419 C45.05804351 -0.08257736 51.06832791 -0.09858743 57.07862373 -0.1109083 C69.71184011 -0.13551176 82.34488651 -0.1279075 94.97810426 -0.11033824 C106.52825122 -0.09524317 118.07792088 -0.11941857 129.6279854 -0.16237065 C141.49336034 -0.20615943 153.3585116 -0.22399943 165.22396678 -0.21359468 C171.8831729 -0.20819312 178.54204452 -0.2134888 185.20119667 -0.24456024 C191.46494713 -0.27259113 197.72776816 -0.26672694 203.99149132 -0.23484421 C206.28925481 -0.22878825 208.58708554 -0.23464962 210.88478088 -0.25335312 C214.02476658 -0.27700734 217.16165164 -0.25741232 220.30151367 -0.22705078 C221.66218506 -0.25251972 221.66218506 -0.25251972 223.05034477 -0.27850318 C229.22308871 -0.15473098 232.26955035 1.54474787 236.65053207 5.86657345 C237.20846314 6.45456845 237.76639422 7.04256344 238.3412323 7.64837646 C239.10837775 8.37399434 239.8755232 9.09961222 240.66591549 9.84721851 C241.60419611 10.78493359 241.60419611 10.78493359 242.56143188 11.74159241 C243.29460129 12.47194199 244.02777069 13.20229156 244.78315735 13.95477295 C245.55698761 14.73062744 246.33081787 15.50648193 247.12809753 16.30584717 C247.96646652 17.14246384 248.80483551 17.97908051 249.66860962 18.84104919 C252.41485448 21.58292346 255.15746194 24.32840243 257.89982605 27.07415771 C259.81376624 28.98787485 261.7283048 30.90099305 263.64276123 32.81419373 C267.64129871 36.81091941 271.63773937 40.80973264 275.63298035 44.80975342 C280.25278217 49.43501835 284.8762055 54.05663978 289.50148243 58.67642909 C293.48138618 62.65180009 297.45934464 66.62910976 301.43567234 70.60805768 C303.80713947 72.98108381 306.17927724 75.35342895 308.55317497 77.72402382 C311.1912475 80.35956949 313.82611491 82.99827731 316.46012878 85.63787842 C317.6421286 86.81684189 317.6421286 86.81684189 318.8480072 88.0196228 C319.91815315 89.09399849 319.91815315 89.09399849 321.00991821 90.19007874 C321.63279944 90.81333699 322.25568068 91.43659525 322.8974371 92.07874012 C325.3244507 94.71729215 325.46594973 96.48781377 325.46428013 99.97060585 C325.46627118 100.88375419 325.46826223 101.79690253 325.47031361 102.73772204 C325.46740077 103.74743386 325.46448793 104.75714568 325.46148682 105.79745483 C325.46276845 107.39872886 325.46276845 107.39872886 325.46407598 109.03235185 C325.46573176 112.63305516 325.46020779 116.23371256 325.45475769 119.83441162 C325.45447581 122.40610249 325.45463356 124.97779343 325.4552002 127.54948425 C325.4557253 133.09831854 325.45257988 138.6471411 325.44696236 144.19597244 C325.43884557 152.21871358 325.43623195 160.24144902 325.43497436 168.26419382 C325.43278413 181.27962771 325.42612481 194.29505535 325.41667175 207.31048584 C325.40749691 219.95599333 325.40041643 232.60149913 325.39616394 245.24700928 C325.39576986 246.41562988 325.39576986 246.41562988 325.39536781 247.60785897 C325.3940628 251.51616029 325.39279908 255.42446162 325.39155591 259.33276296 C325.38118417 291.77130535 325.36356662 324.20984007 325.3412323 356.64837646 C326.24629013 356.83659218 326.24629013 356.83659218 327.16963196 357.02861023 C327.9689212 357.1995369 328.76821045 357.37046356 329.59172058 357.54656982 C330.38071747 357.71329697 331.16971436 357.88002411 331.98262024 358.05180359 C335.63381644 358.97531477 338.87517905 360.49963584 342.2162323 362.21087646 C342.90531677 362.5616626 343.59440125 362.91244873 344.30436707 363.27386475 C362.5414233 372.89065567 375.18210126 389.2792292 382.3334198 408.38275146 C388.92239438 429.73307219 386.64765281 452.2500728 376.54631042 472.0043335 C373.43701025 477.7765068 369.77134599 482.80677 365.3412323 487.64837646 C364.75084167 488.33029053 364.16045105 489.01220459 363.5521698 489.71478271 C351.75556606 502.54045189 333.40944697 511.43005419 316.09898984 512.92915809 C312.5785748 513.03486318 309.06893472 513.053251 305.54696655 513.03605652 C304.19436129 513.04023908 302.84175954 513.04572162 301.48916417 513.05237633 C297.80544814 513.06672903 294.12195777 513.06261843 290.43822992 513.05520952 C286.45241072 513.05045467 282.46663873 513.06300812 278.48083496 513.07322693 C270.68487094 513.09037557 262.88898765 513.09126307 255.09300967 513.08601402 C248.75235981 513.08196344 242.41173371 513.08342641 236.07108498 513.08876228 C235.16672321 513.08951071 234.26236145 513.09025913 233.33059478 513.09103023 C231.49304315 513.0925618 229.65549153 513.09410015 227.81793991 513.0956452 C210.60634835 513.10935621 193.3948023 513.10394258 176.18321178 513.09245998 C160.46100399 513.08253092 144.73891394 513.09546512 129.01672431 513.11939418 C112.84691231 513.14381779 96.67715506 513.15338492 80.50732499 513.14674145 C71.43973606 513.14325624 62.37223762 513.14543497 53.3046627 513.16299248 C45.58502379 513.17775539 37.86553909 513.17829678 30.14590307 513.16092157 C26.21282231 513.15244237 22.28001654 513.15018582 18.34695053 513.16557312 C14.73629045 513.17952333 11.12613825 513.17452669 7.51550678 513.15533388 C5.61242595 513.14985807 3.70931857 513.16375878 1.80628842 513.17868799 C-9.99333216 513.07928627 -21.48838999 510.45610904 -31.9712677 504.89837646 C-32.63513489 504.55548584 -33.29900208 504.21259521 -33.98298645 503.85931396 C-39.77759472 500.77035936 -44.81119614 497.08394827 -49.6587677 492.64837646 C-50.68163879 491.76279053 -50.68163879 491.76279053 -51.72517395 490.85931396 C-64.58725464 479.02922018 -73.29973328 460.80243595 -74.96247864 443.48529053 C-75.09457145 440.26242445 -75.12704509 437.06125042 -75.0962677 433.83587646 C-75.08724426 432.69586182 -75.07822083 431.55584717 -75.06892395 430.38128662 C-74.60230244 407.604324 -64.70747492 389.2486865 -48.5962677 373.52337646 C-40.02951883 365.96873295 -26.50562607 356.64837646 -14.6587677 356.64837646 C-14.6606663 355.90756972 -14.6625649 355.16676297 -14.66452104 354.40350753 C-14.77635077 310.52161324 -14.86216977 266.63973441 -14.91409435 222.75772624 C-14.92034807 217.49170251 -14.92681966 212.22567906 -14.9334259 206.95965576 C-14.93473746 205.91126153 -14.93604901 204.8628673 -14.9374003 203.78270354 C-14.95917168 186.79523828 -14.99860274 169.8078574 -15.04453168 152.82044224 C-15.09124814 135.39676216 -15.11905291 117.97312635 -15.12921017 100.5493862 C-15.13607932 89.79330652 -15.15779413 79.03746534 -15.19835003 68.28145906 C-15.22472903 60.9110416 -15.2327797 53.54074789 -15.22627459 46.17028663 C-15.22306412 41.91441849 -15.22807122 37.65896783 -15.25479507 33.40317345 C-15.27907156 29.50878266 -15.28039242 25.61509129 -15.26326218 21.72066876 C-15.26114409 20.31007711 -15.26753484 18.89944236 -15.28318361 17.48893593 C-15.39370904 6.91383192 -15.39370904 6.91383192 -12.72486115 2.31848812 C-8.40616156 -0.03392241 -4.85220493 -0.0519804 0 0 Z " fill="#FEFEFE" transform="translate(100.65876770019531,-0.64837646484375)"/>
<path d="M0 0 C0.97868016 -0.00921108 1.95736033 -0.01842217 2.96569747 -0.02791238 C6.24853241 -0.05255943 9.53026159 -0.04141786 12.81315613 -0.03033447 C15.16542508 -0.04038278 17.51768587 -0.05252924 19.86993408 -0.06661987 C26.26263933 -0.09799869 32.65496864 -0.09734198 39.04773164 -0.08911419 C45.05804351 -0.08257736 51.06832791 -0.09858743 57.07862373 -0.1109083 C69.71184011 -0.13551176 82.34488651 -0.1279075 94.97810426 -0.11033824 C106.52825122 -0.09524317 118.07792088 -0.11941857 129.6279854 -0.16237065 C141.49336034 -0.20615943 153.3585116 -0.22399943 165.22396678 -0.21359468 C171.8831729 -0.20819312 178.54204452 -0.2134888 185.20119667 -0.24456024 C191.46494713 -0.27259113 197.72776816 -0.26672694 203.99149132 -0.23484421 C206.28925481 -0.22878825 208.58708554 -0.23464962 210.88478088 -0.25335312 C214.02476658 -0.27700734 217.16165164 -0.25741232 220.30151367 -0.22705078 C221.66218506 -0.25251972 221.66218506 -0.25251972 223.05034477 -0.27850318 C229.22308871 -0.15473098 232.26955035 1.54474787 236.65053207 5.86657345 C237.20846314 6.45456845 237.76639422 7.04256344 238.3412323 7.64837646 C239.10837775 8.37399434 239.8755232 9.09961222 240.66591549 9.84721851 C241.60419611 10.78493359 241.60419611 10.78493359 242.56143188 11.74159241 C243.29460129 12.47194199 244.02777069 13.20229156 244.78315735 13.95477295 C245.55698761 14.73062744 246.33081787 15.50648193 247.12809753 16.30584717 C247.96646652 17.14246384 248.80483551 17.97908051 249.66860962 18.84104919 C252.41485448 21.58292346 255.15746194 24.32840243 257.89982605 27.07415771 C259.81376624 28.98787485 261.7283048 30.90099305 263.64276123 32.81419373 C267.64129871 36.81091941 271.63773937 40.80973264 275.63298035 44.80975342 C280.25278217 49.43501835 284.8762055 54.05663978 289.50148243 58.67642909 C293.48138618 62.65180009 297.45934464 66.62910976 301.43567234 70.60805768 C303.80713947 72.98108381 306.17927724 75.35342895 308.55317497 77.72402382 C311.1912475 80.35956949 313.82611491 82.99827731 316.46012878 85.63787842 C317.6421286 86.81684189 317.6421286 86.81684189 318.8480072 88.0196228 C319.91815315 89.09399849 319.91815315 89.09399849 321.00991821 90.19007874 C321.63279944 90.81333699 322.25568068 91.43659525 322.8974371 92.07874012 C325.3244507 94.71729215 325.46594973 96.48781377 325.46428013 99.97060585 C325.46627118 100.88375419 325.46826223 101.79690253 325.47031361 102.73772204 C325.46740077 103.74743386 325.46448793 104.75714568 325.46148682 105.79745483 C325.46276845 107.39872886 325.46276845 107.39872886 325.46407598 109.03235185 C325.46573176 112.63305516 325.46020779 116.23371256 325.45475769 119.83441162 C325.45447581 122.40610249 325.45463356 124.97779343 325.4552002 127.54948425 C325.4557253 133.09831854 325.45257988 138.6471411 325.44696236 144.19597244 C325.43884557 152.21871358 325.43623195 160.24144902 325.43497436 168.26419382 C325.43278413 181.27962771 325.42612481 194.29505535 325.41667175 207.31048584 C325.40749691 219.95599333 325.40041643 232.60149913 325.39616394 245.24700928 C325.39576986 246.41562988 325.39576986 246.41562988 325.39536781 247.60785897 C325.3940628 251.51616029 325.39279908 255.42446162 325.39155591 259.33276296 C325.38118417 291.77130535 325.36356662 324.20984007 325.3412323 356.64837646 C326.24629013 356.83659218 326.24629013 356.83659218 327.16963196 357.02861023 C327.9689212 357.1995369 328.76821045 357.37046356 329.59172058 357.54656982 C330.38071747 357.71329697 331.16971436 357.88002411 331.98262024 358.05180359 C335.63381644 358.97531477 338.87517905 360.49963584 342.2162323 362.21087646 C342.90531677 362.5616626 343.59440125 362.91244873 344.30436707 363.27386475 C362.5414233 372.89065567 375.18210126 389.2792292 382.3334198 408.38275146 C388.92239438 429.73307219 386.64765281 452.2500728 376.54631042 472.0043335 C373.43701025 477.7765068 369.77134599 482.80677 365.3412323 487.64837646 C364.75084167 488.33029053 364.16045105 489.01220459 363.5521698 489.71478271 C351.75556606 502.54045189 333.40944697 511.43005419 316.09898984 512.92915809 C312.5785748 513.03486318 309.06893472 513.053251 305.54696655 513.03605652 C304.19436129 513.04023908 302.84175954 513.04572162 301.48916417 513.05237633 C297.80544814 513.06672903 294.12195777 513.06261843 290.43822992 513.05520952 C286.45241072 513.05045467 282.46663873 513.06300812 278.48083496 513.07322693 C270.68487094 513.09037557 262.88898765 513.09126307 255.09300967 513.08601402 C248.75235981 513.08196344 242.41173371 513.08342641 236.07108498 513.08876228 C235.16672321 513.08951071 234.26236145 513.09025913 233.33059478 513.09103023 C231.49304315 513.0925618 229.65549153 513.09410015 227.81793991 513.0956452 C210.60634835 513.10935621 193.3948023 513.10394258 176.18321178 513.09245998 C160.46100399 513.08253092 144.73891394 513.09546512 129.01672431 513.11939418 C112.84691231 513.14381779 96.67715506 513.15338492 80.50732499 513.14674145 C71.43973606 513.14325624 62.37223762 513.14543497 53.3046627 513.16299248 C45.58502379 513.17775539 37.86553909 513.17829678 30.14590307 513.16092157 C26.21282231 513.15244237 22.28001654 513.15018582 18.34695053 513.16557312 C14.73629045 513.17952333 11.12613825 513.17452669 7.51550678 513.15533388 C5.61242595 513.14985807 3.70931857 513.16375878 1.80628842 513.17868799 C-9.99333216 513.07928627 -21.48838999 510.45610904 -31.9712677 504.89837646 C-32.63513489 504.55548584 -33.29900208 504.21259521 -33.98298645 503.85931396 C-39.77759472 500.77035936 -44.81119614 497.08394827 -49.6587677 492.64837646 C-50.68163879 491.76279053 -50.68163879 491.76279053 -51.72517395 490.85931396 C-64.58725464 479.02922018 -73.29973328 460.80243595 -74.96247864 443.48529053 C-75.09457145 440.26242445 -75.12704509 437.06125042 -75.0962677 433.83587646 C-75.08724426 432.69586182 -75.07822083 431.55584717 -75.06892395 430.38128662 C-74.60230244 407.604324 -64.70747492 389.2486865 -48.5962677 373.52337646 C-40.02951883 365.96873295 -26.50562607 356.64837646 -14.6587677 356.64837646 C-14.6606663 355.90756972 -14.6625649 355.16676297 -14.66452104 354.40350753 C-14.77635077 310.52161324 -14.86216977 266.63973441 -14.91409435 222.75772624 C-14.92034807 217.49170251 -14.92681966 212.22567906 -14.9334259 206.95965576 C-14.93473746 205.91126153 -14.93604901 204.8628673 -14.9374003 203.78270354 C-14.95917168 186.79523828 -14.99860274 169.8078574 -15.04453168 152.82044224 C-15.09124814 135.39676216 -15.11905291 117.97312635 -15.12921017 100.5493862 C-15.13607932 89.79330652 -15.15779413 79.03746534 -15.19835003 68.28145906 C-15.22472903 60.9110416 -15.2327797 53.54074789 -15.22627459 46.17028663 C-15.22306412 41.91441849 -15.22807122 37.65896783 -15.25479507 33.40317345 C-15.27907156 29.50878266 -15.28039242 25.61509129 -15.26326218 21.72066876 C-15.26114409 20.31007711 -15.26753484 18.89944236 -15.28318361 17.48893593 C-15.39370904 6.91383192 -15.39370904 6.91383192 -12.72486115 2.31848812 C-8.40616156 -0.03392241 -4.85220493 -0.0519804 0 0 Z M5.3412323 20.64837646 C5.3412323 153.63837646 5.3412323 286.62837646 5.3412323 423.64837646 C40.9812323 423.97837646 76.6212323 424.30837646 113.3412323 424.64837646 C117.3412323 426.64837646 117.3412323 426.64837646 119.3412323 429.64837646 C119.42326355 431.80462646 119.42326355 431.80462646 119.1537323 434.14837646 C119.03965027 435.30853271 119.03965027 435.30853271 118.92326355 436.49212646 C118.23155956 439.05468084 117.4160227 440.02419687 115.3412323 441.64837646 C112.30697504 442.65979555 110.25359139 442.7812571 107.07881165 442.79554749 C105.98807343 442.80270279 104.89733521 442.80985809 103.77354431 442.81723022 C102.57658936 442.81991913 101.3796344 442.82260803 100.14640808 442.82537842 C98.88603729 442.83194962 97.6256665 442.83852081 96.32710266 442.84529114 C92.14692961 442.86630951 87.96675628 442.87668985 83.7865448 442.88665771 C82.3469071 442.89070578 80.9072696 442.89482272 79.46763229 442.8990078 C72.7053367 442.91805277 65.943052 442.93228655 59.18073475 442.94061977 C51.3757371 442.95039699 43.57102268 442.97673176 35.76612484 443.01712066 C29.73206342 443.04727429 23.69808325 443.06208782 17.66394794 443.06540078 C14.06038966 443.06775171 10.45713421 443.07671745 6.85365677 443.10186195 C2.8338713 443.12945932 -1.18528028 443.12531394 -5.20515442 443.11834717 C-6.99451416 443.13756226 -6.99451416 443.13756226 -8.82002258 443.15716553 C-16.88585706 443.10608124 -16.88585706 443.10608124 -20.87461853 440.7440033 C-23.19984642 438.01283595 -23.6229618 436.96466191 -24.0337677 433.33587646 C-23.6587677 429.64837646 -23.6587677 429.64837646 -21.4087677 426.77337646 C-18.6587677 424.64837646 -18.6587677 424.64837646 -14.6587677 423.64837646 C-14.6587677 408.46837646 -14.6587677 393.28837646 -14.6587677 377.64837646 C-32.76276999 384.88997738 -44.00303738 395.80550885 -51.98298645 413.60150146 C-57.3657874 428.33337775 -56.18725985 444.61033384 -49.63435364 458.72161865 C-42.34868473 473.11063243 -30.69261339 484.34208508 -15.37752628 489.82256317 C-1.53734043 493.53160811 12.39904975 493.22194016 26.62630188 493.17127514 C30.43482552 493.16212758 34.24327917 493.17624179 38.05178833 493.18719482 C45.48982255 493.20488183 52.92769434 493.20118437 60.36573464 493.18954426 C66.41592961 493.18047192 72.46607939 493.17930227 78.51627922 493.18363953 C79.81309002 493.18455892 79.81309002 493.18455892 81.13609902 493.1854969 C82.89295926 493.18677593 84.64981948 493.18807279 86.40667968 493.18938726 C102.83909971 493.20076411 119.27143015 493.18772462 135.70383548 493.1661858 C149.77352363 493.14831427 163.84307973 493.151425 177.9127655 493.16986084 C194.29215379 493.1913134 210.67146378 493.19966908 227.05086416 493.18741179 C228.80057648 493.18613772 230.5502888 493.18488024 232.30000114 493.18363953 C233.16066558 493.18302242 234.02133002 493.18240532 234.9080752 493.18176952 C240.94461644 493.17832999 246.98110759 493.1841146 253.01764107 493.19355774 C260.38324025 493.20482787 267.74866914 493.20163296 275.11424906 493.18043476 C278.86521313 493.16999176 282.61589426 493.16568561 286.36685562 493.17903137 C309.74290052 493.25526262 330.37986921 492.43387291 348.3412323 475.64837646 C359.23057029 463.9962127 365.40684051 449.27924516 365.7162323 433.27337646 C365.4990636 427.90930954 364.74988324 422.82700073 363.3412323 417.64837646 C363.10791199 416.78728271 362.87459167 415.92618896 362.63420105 415.03900146 C358.4133188 401.70178448 348.96355303 389.28697182 336.6302948 382.54290771 C331.1877632 379.28675986 331.1877632 379.28675986 325.3412323 377.64837646 C325.3412323 392.82837646 325.3412323 408.00837646 325.3412323 423.64837646 C328.8062323 425.13337646 328.8062323 425.13337646 332.3412323 426.64837646 C334.8328227 430.38576206 334.79916515 432.22169229 334.3412323 436.64837646 C332.20443945 440.03777202 331.1637556 441.37420203 327.3412323 442.64837646 C325.58917752 442.74695918 323.83361993 442.78764871 322.07881165 442.79554749 C320.98807343 442.80270279 319.89733521 442.80985809 318.77354431 442.81723022 C316.97811188 442.82126358 316.97811188 442.82126358 315.14640808 442.82537842 C313.88603729 442.83194962 312.6256665 442.83852081 311.32710266 442.84529114 C307.14692961 442.86630951 302.96675628 442.87668985 298.7865448 442.88665771 C297.3469071 442.89070578 295.9072696 442.89482272 294.46763229 442.8990078 C287.7053367 442.91805277 280.943052 442.93228655 274.18073475 442.94061977 C266.3757371 442.95039699 258.57102268 442.97673176 250.76612484 443.01712066 C244.73206342 443.04727429 238.69808325 443.06208782 232.66394794 443.06540078 C229.06038966 443.06775171 225.45713421 443.07671745 221.85365677 443.10186195 C217.8338713 443.12945932 213.81471972 443.12531394 209.79484558 443.11834717 C208.00548584 443.13756226 208.00548584 443.13756226 206.17997742 443.15716553 C198.12066966 443.10612258 198.12066966 443.10612258 194.11805725 440.75547791 C192.17841885 438.45529923 191.53566957 437.18370398 191.2162323 434.21087646 C191.11052917 433.46966553 191.00482605 432.72845459 190.8959198 431.96478271 C191.3412323 429.64837646 191.3412323 429.64837646 196.3412323 424.64837646 C232.3112323 424.31837646 268.2812323 423.98837646 305.3412323 423.64837646 C305.3412323 320.35837646 305.3412323 217.06837646 305.3412323 110.64837646 C278.2812323 110.31837646 251.2212323 109.98837646 223.3412323 109.64837646 C221.6912323 108.98837646 220.0412323 108.32837646 218.3412323 107.64837646 C207.5645013 80.70654897 215.69507472 49.66345523 215.3412323 20.64837646 C146.0412323 20.64837646 76.7412323 20.64837646 5.3412323 20.64837646 Z " fill="#000000" transform="translate(100.65876770019531,-0.64837646484375)"/>
<path d="M0 0 C0 15.18 0 30.36 0 46 C-2.31 46.99 -4.62 47.98 -7 49 C-9.4915904 52.7373856 -9.45793285 54.57331583 -9 59 C-7.20437595 61.75329021 -5.94745078 63.52627461 -3 65 C-1.28819147 65.09944326 0.42747999 65.13507468 2.14216614 65.14044189 C3.77621147 65.14900711 3.77621147 65.14900711 5.44326782 65.15774536 C6.64381805 65.15886322 7.84436829 65.15998108 9.08129883 65.16113281 C10.34152359 65.16609772 11.60174835 65.17106262 12.90016174 65.17617798 C16.36307797 65.18930993 19.82597481 65.19574862 23.28891206 65.20018864 C25.45218495 65.20311844 27.61545254 65.20722309 29.77872276 65.21169281 C36.54636448 65.22537061 43.31399407 65.23503555 50.08164865 65.2388947 C57.8950948 65.24337456 65.70836593 65.26091776 73.52175885 65.2898953 C79.56004756 65.31151232 85.59828703 65.32159901 91.63661402 65.32293582 C95.24348117 65.32398396 98.85018385 65.32989325 102.45701027 65.34775543 C106.48162068 65.36729831 110.50586499 65.3629471 114.53051758 65.35644531 C116.32223389 65.37026749 116.32223389 65.37026749 118.15014648 65.3843689 C119.24796951 65.37879974 120.34579254 65.37323059 121.47688293 65.36749268 C122.42834104 65.36895924 123.37979914 65.3704258 124.3600893 65.3719368 C127.64964475 64.90847161 129.39128696 64.0626771 132 62 C132.99 60.02 133.98 58.04 135 56 C143.25 56 151.5 56 160 56 C160.33 54.35 160.66 52.7 161 51 C163.68968002 47.44012939 165.03521341 46.13782666 169.5 45.5 C173.16238406 46.02319772 175.09086508 46.7558102 178 49 C180 52 180 52 180 56 C188.25 56 196.5 56 205 56 C205.99 57.98 206.98 59.96 208 62 C211.0062017 65.00637671 213.19781595 65.37596044 217.38267517 65.38095093 C218.47478806 65.3894104 219.56690094 65.39786987 220.69210815 65.40658569 C221.88546783 65.400513 223.07882751 65.39444031 224.30834961 65.38818359 C225.56886642 65.39344055 226.82938324 65.39869751 228.12809753 65.40411377 C231.58271974 65.41778597 235.03707305 65.41248892 238.49169993 65.40297651 C242.10885893 65.3953777 245.725995 65.40242629 249.34315491 65.40713501 C255.41850921 65.41259263 261.49375411 65.40540158 267.5690918 65.39111328 C274.58896917 65.37479402 281.60858504 65.38006985 288.62845606 65.3965925 C294.65831167 65.41021601 300.68808866 65.4121226 306.7179547 65.40427649 C310.31806031 65.39960376 313.91804311 65.39896388 317.51814079 65.40888596 C321.53300274 65.41917814 325.54741559 65.40490415 329.56225586 65.38818359 C330.75359131 65.39425629 331.94492676 65.40032898 333.17236328 65.40658569 C334.26729599 65.39812622 335.3622287 65.38966675 336.49034119 65.38095093 C337.43920165 65.37981985 338.38806211 65.37868877 339.36567593 65.37752342 C342.55355754 64.92067 344.40925387 63.88990281 347 62 C349.48038907 58.2794164 349.46337203 56.40203429 349 52 C346.31555369 48.32131432 344.41741827 47.76696731 340 46 C340 30.82 340 15.64 340 0 C357.64151932 7.05660773 369.50248326 17.86292804 377.06640625 35.484375 C378.76015328 40.23013963 379.6961007 44.96778505 380 50 C380.06445312 50.85980469 380.12890625 51.71960938 380.1953125 52.60546875 C380.8382532 68.48610399 375.38392795 83.47865927 365.23046875 95.61328125 C353.27932671 108.40163113 337.91177328 114.63762601 320.57722664 115.37159729 C313.33369881 115.55344885 306.09076754 115.54867647 298.84565508 115.52289867 C295.03845793 115.51375979 291.2313312 115.52786126 287.42414856 115.53881836 C279.98631017 115.55651542 272.54863411 115.55280305 265.1107896 115.5411678 C259.06010258 115.53209812 253.00946073 115.53092468 246.95876884 115.53526306 C246.09438154 115.53587599 245.22999424 115.53648893 244.33941339 115.53712043 C242.58287735 115.53839946 240.82634133 115.53969632 239.06980532 115.5410108 C222.63545185 115.55239095 206.20118793 115.53934363 189.76684915 115.51780933 C175.69746725 115.49994387 161.62821741 115.50304289 147.55883789 115.52148438 C131.18091218 115.54294205 114.80306478 115.55128923 98.42512697 115.53903532 C96.6751003 115.53776126 94.92507362 115.53650378 93.17504692 115.53526306 C91.88381885 115.53433741 91.88381885 115.53433741 90.56650536 115.53339306 C84.53094647 115.52995457 78.49543768 115.53573598 72.45988655 115.54518127 C65.09319381 115.5564574 57.72667132 115.5532444 50.35999782 115.5320583 C46.60891685 115.52162223 42.8581186 115.51729685 39.10704041 115.53065491 C15.29729134 115.60820447 -5.38257747 114.95471739 -23.6171875 97.62890625 C-35.67686157 84.32372486 -41.28109208 68.75554308 -40.47265625 50.8671875 C-39.19669057 34.51308107 -30.36039864 19.75608678 -18.05859375 9.19921875 C-5.26465364 0 -5.26465364 0 0 0 Z " fill="#5FA3FE" transform="translate(86,377)"/>
<path d="M0 0 C5.035899 3.33876138 10.22054399 6.84782424 12.48046875 12.64453125 C12.40417033 16.84094436 11.85161167 19.09941509 9.48046875 22.58203125 C5.99408771 24.97891822 4.02596091 25.4921445 -0.140625 25.265625 C-3.86893066 24.292225 -6.20369708 21.98911457 -9.1015625 19.53515625 C-18.5532428 12.14482787 -29.03860832 11.44264002 -40.51953125 12.64453125 C-46.36218001 14.00584304 -50.34428499 17.26252176 -55.01953125 20.89453125 C-59.25651494 24.06930194 -62.22202239 25.78679024 -67.57421875 25.23046875 C-71.02953564 24.18971065 -72.51807052 22.58417669 -74.51953125 19.64453125 C-75.58203125 16.20703125 -75.58203125 16.20703125 -75.51953125 12.64453125 C-69.71592285 2.17855159 -57.46186077 -3.61335911 -46.51953125 -7.35546875 C-31.10396926 -11.75167764 -13.50504464 -7.87960507 0 0 Z " fill="#030303" transform="translate(287.51953125,249.35546875)"/>
<path d="M0 0 C4.29303534 3.67974458 8.32389518 7.198194 12.29272461 11.16333008 C12.77167175 11.6405249 13.2506189 12.11771973 13.74407959 12.609375 C15.29932977 14.16028435 16.85096543 15.71474965 18.40234375 17.26953125 C19.49078536 18.35729825 20.57937529 19.44491685 21.66810608 20.53239441 C23.93474235 22.79756485 26.19958084 25.06451321 28.46313477 27.33276367 C31.37072187 30.24608849 34.28283087 33.15484571 37.19626522 36.06232166 C39.43788416 38.30033962 41.67713156 40.54071812 43.91565132 42.78183556 C44.9894723 43.85632498 46.06404036 44.9300683 47.13935661 46.00306129 C48.63300887 47.49419025 50.12344596 48.98845823 51.61303711 50.48364258 C52.46240341 51.33380447 53.31176971 52.18396637 54.18687439 53.05989075 C56 55 56 55 56 56 C37.52 56 19.04 56 0 56 C0 37.52 0 19.04 0 0 Z " fill="#F4F4F4" transform="translate(336,34)"/>
<path d="M0 0 C3.95403662 0.26360244 5.65370756 0.86143155 8.75 3.25 C11.2180704 6.95210559 11.08179675 9.84112254 11.0625 14.125 C11.07861328 14.83269531 11.09472656 15.54039062 11.11132812 16.26953125 C11.11553722 20.7901003 10.56139058 23.68144334 7.75 27.25 C4.06106884 29.70928744 1.03358579 29.94305579 -3.25 29.25 C-6.69312714 27.1255173 -7.96617547 26.10147359 -9.25 22.25 C-9.44978883 19.60707914 -9.57257043 17.02030994 -9.625 14.375 C-9.66238281 13.66730469 -9.69976562 12.95960938 -9.73828125 12.23046875 C-9.80688462 8.13713452 -9.44835401 6.48739512 -6.7890625 3.3046875 C-5.95117188 2.62664062 -5.11328125 1.94859375 -4.25 1.25 C-3.25 0.25 -3.25 0.25 0 0 Z " fill="#040404" transform="translate(325.25,186.75)"/>
<path d="M0 0 C3.95403662 0.26360244 5.65370756 0.86143155 8.75 3.25 C11.2180704 6.95210559 11.08179675 9.84112254 11.0625 14.125 C11.07861328 14.83269531 11.09472656 15.54039062 11.11132812 16.26953125 C11.11553722 20.7901003 10.56139058 23.68144334 7.75 27.25 C4.06106884 29.70928744 1.03358579 29.94305579 -3.25 29.25 C-6.69312714 27.1255173 -7.96617547 26.10147359 -9.25 22.25 C-9.44978883 19.60707914 -9.57257043 17.02030994 -9.625 14.375 C-9.66238281 13.66730469 -9.69976562 12.95960938 -9.73828125 12.23046875 C-9.80688462 8.13713452 -9.44835401 6.48739512 -6.7890625 3.3046875 C-5.95117188 2.62664062 -5.11328125 1.94859375 -4.25 1.25 C-3.25 0.25 -3.25 0.25 0 0 Z " fill="#040404" transform="translate(185.25,186.75)"/>
<path d="M0 0 C3.95403662 0.26360244 5.65370756 0.86143155 8.75 3.25 C11.26397287 7.02095931 10.88501265 8.76090027 10.30078125 13.08984375 C9.54194744 16.06597918 8.20579658 17.46396612 5.75 19.25 C2.84704195 20.70147903 0.97738221 20.62239025 -2.25 20.25 C-5.78633679 18.1815766 -7.64096547 16.95099037 -9.0234375 13.08984375 C-9.45530953 10.64935934 -9.61011571 8.70412187 -9.25 6.25 C-6.875 3.25 -6.875 3.25 -4.25 1.25 C-3.25 0.25 -3.25 0.25 0 0 Z " fill="#050607" transform="translate(255.25,422.75)"/>
</svg>
