<?xml version="1.0" encoding="UTF-8"?>
<svg version="1.1" xmlns="http://www.w3.org/2000/svg" width="50" height="50">
<path d="M0 0 C-0.51006598 4.1724031 -1.59504611 6.08024151 -4.59765625 8.98828125 C-5.31630859 9.69404297 -6.03496094 10.39980469 -6.77539062 11.12695312 C-7.53013672 11.84818359 -8.28488281 12.56941406 -9.0625 13.3125 C-9.82111328 14.05306641 -10.57972656 14.79363281 -11.36132812 15.55664062 C-13.23219159 17.38043834 -15.11174492 19.19424304 -17 21 C-15.6160559 24.13335276 -14.02079604 26.19761909 -11.55859375 28.56640625 C-10.89279297 29.21673828 -10.22699219 29.86707031 -9.54101562 30.53710938 C-8.84685547 31.20548828 -8.15269531 31.87386719 -7.4375 32.5625 C-6.05660983 33.89238776 -4.68009172 35.22683452 -3.30859375 36.56640625 C-2.69814209 37.15365479 -2.08769043 37.74090332 -1.45874023 38.34594727 C0 40 0 40 1 43 C-1.19384766 43.75634766 -1.19384766 43.75634766 -4 44 C-6.41943359 42.35693359 -6.41943359 42.35693359 -8.8984375 39.8984375 C-9.78917969 39.01542969 -10.67992187 38.13242187 -11.59765625 37.22265625 C-12.51417969 36.28292969 -13.43070313 35.34320313 -14.375 34.375 C-15.31472656 33.45847656 -16.25445313 32.54195312 -17.22265625 31.59765625 C-18.10566406 30.70691406 -18.98867188 29.81617187 -19.8984375 28.8984375 C-20.70974121 28.08036621 -21.52104492 27.26229492 -22.35693359 26.41943359 C-24 24 -24 24 -24.01342773 21.48413086 C-22.76785915 18.43097249 -21.21135151 16.69380605 -18.88671875 14.35546875 C-18.05076172 13.51435547 -17.21480469 12.67324219 -16.35351562 11.80664062 C-15.47373047 10.94232422 -14.59394531 10.07800781 -13.6875 9.1875 C-12.81931641 8.30384766 -11.95113281 7.42019531 -11.05664062 6.50976562 C-10.21681641 5.67509766 -9.37699219 4.84042969 -8.51171875 3.98046875 C-7.74303467 3.21629639 -6.97435059 2.45212402 -6.18237305 1.66479492 C-4 0 -4 0 0 0 Z " fill="#000000" transform="translate(37,3)"/>
</svg>
