<?xml version="1.0" encoding="UTF-8"?>
<svg version="1.1" xmlns="http://www.w3.org/2000/svg" width="50" height="50">
<path d="M0 0 C5.56340585 3.36669624 9.53349183 8.25193794 11.5 14.4375 C12.30594257 22.2813829 12.59671889 30.02934467 7.5 36.4375 C3.04867668 41.14197914 -1.19064516 44.09747071 -7.76953125 44.7734375 C-16.04371997 44.8646634 -22.08428015 44.61560264 -28.2421875 38.7890625 C-34.17397269 32.28964236 -34.96296445 26.57688134 -34.80859375 17.88671875 C-34.22339005 11.3457711 -31.85547257 7.43687235 -27.0625 3.0625 C-19.84507341 -2.93248543 -8.52200107 -3.84066973 0 0 Z M-27.875 9 C-31.92382663 15.07323995 -32.40391446 20.17822818 -31.5 27.4375 C-29.32669597 33.13659339 -25.37449696 36.94057827 -20.5 40.4375 C-15.15802154 42.21815949 -8.78990031 42.4377261 -3.3671875 40.7890625 C1.95660981 37.99585943 6.59881944 33.14104169 8.5 27.4375 C9.16572293 19.97267235 9.18405772 14.4427022 4.5 8.4375 C-0.45675252 3.48074748 -4.03505015 1.30060973 -11.1875 1.0625 C-18.70019372 1.12608991 -22.85903471 3.58803745 -27.875 9 Z " fill="#000000" transform="translate(36.5,3.5625)"/>
<path d="M0 0 C0 1.98 0 3.96 0 6 C5.94 6 11.88 6 18 6 C18 6.66 18 7.32 18 8 C12.06 8 6.12 8 0 8 C0 9.98 0 11.96 0 14 C-2.31 12.02 -4.62 10.04 -7 8 C-3 0 -3 0 0 0 Z " fill="#000000" transform="translate(20,18)"/>
</svg>
