<?xml version="1.0" encoding="UTF-8"?>
<svg version="1.1" xmlns="http://www.w3.org/2000/svg" width="50" height="50">
<path d="M0 0 C3.99832828 1.59933131 7.37194763 3.26223728 11.0703125 5.40625 C11.63321991 5.73161743 12.19612732 6.05698486 12.77609253 6.39221191 C13.95856244 7.07648988 15.1401191 7.76234819 16.32080078 8.44970703 C18.12468136 9.49981451 19.93120679 10.54524382 21.73828125 11.58984375 C30.52303166 16.6820211 30.52303166 16.6820211 34 19 C34 19.66 34 20.32 34 21 C31.96955624 22.38037163 29.95693807 23.62353833 27.83203125 24.84375 C27.20020432 25.21350952 26.56837738 25.58326904 25.91740417 25.9642334 C24.57515598 26.7477377 23.23078989 27.52762302 21.88452148 28.30419922 C19.83411111 29.48752784 17.79064025 30.68214558 15.74804688 31.87890625 C14.44310541 32.63870322 13.13777864 33.39783888 11.83203125 34.15625 C11.22349808 34.51150757 10.6149649 34.86676514 9.98799133 35.23278809 C6.68771451 37.13111531 3.5644068 38.57423728 0 40 C0 26.8 0 13.6 0 0 Z " fill="#FFFFFF" transform="translate(10,5)"/>
</svg>
